<mxfile host="app.diagrams.net" agent="Mozilla/5.0 (Windows NT 10.0; Win64; x64) AppleWebKit/537.36 (KHTML, like Gecko) Chrome/127.0.0.0 Safari/537.36 Edg/127.0.0.0" version="24.7.5">
  <diagram name="Page-1" id="0u0Wh9WnAYFVmg1LKRLl">
    <mxGraphModel dx="1658" dy="1033" grid="1" gridSize="10" guides="1" tooltips="1" connect="1" arrows="1" fold="1" page="1" pageScale="1" pageWidth="850" pageHeight="1100" math="0" shadow="0">
      <root>
        <mxCell id="0" />
        <mxCell id="1" parent="0" />
        <mxCell id="DWfyo2QW2wu0mthNHuxB-26" value="n" style="group" parent="1" vertex="1" connectable="0">
          <mxGeometry x="311" y="510" width="104" height="120" as="geometry" />
        </mxCell>
        <mxCell id="DWfyo2QW2wu0mthNHuxB-24" value="" style="image;sketch=0;aspect=fixed;html=1;points=[];align=center;fontSize=12;image=img/lib/mscae/Person.svg;" parent="DWfyo2QW2wu0mthNHuxB-26" vertex="1">
          <mxGeometry width="87.99999999999996" height="118.91891891891888" as="geometry" />
        </mxCell>
        <mxCell id="DWfyo2QW2wu0mthNHuxB-25" value="" style="ellipse;whiteSpace=wrap;html=1;aspect=fixed;fillColor=#000000;" parent="DWfyo2QW2wu0mthNHuxB-26" vertex="1">
          <mxGeometry x="17.17717717717717" width="52.852852852852834" height="52.852852852852834" as="geometry" />
        </mxCell>
        <mxCell id="DWfyo2QW2wu0mthNHuxB-31" value="Internet" style="ellipse;shape=cloud;whiteSpace=wrap;html=1;" parent="1" vertex="1">
          <mxGeometry x="321" y="345" width="120" height="80" as="geometry" />
        </mxCell>
        <mxCell id="DWfyo2QW2wu0mthNHuxB-49" value="" style="sketch=0;pointerEvents=1;shadow=0;dashed=0;html=1;strokeColor=none;labelPosition=center;verticalLabelPosition=bottom;verticalAlign=top;align=center;fillColor=#505050;shape=mxgraph.mscae.intune.user_group" parent="1" vertex="1">
          <mxGeometry x="111" y="310" width="100" height="77" as="geometry" />
        </mxCell>
        <mxCell id="DWfyo2QW2wu0mthNHuxB-52" value="" style="group" parent="1" vertex="1" connectable="0">
          <mxGeometry x="301" y="220" width="180" height="57" as="geometry" />
        </mxCell>
        <mxCell id="DWfyo2QW2wu0mthNHuxB-51" value="" style="rounded=0;whiteSpace=wrap;html=1;" parent="DWfyo2QW2wu0mthNHuxB-52" vertex="1">
          <mxGeometry x="-17" y="-50" width="191" height="99.25" as="geometry" />
        </mxCell>
        <mxCell id="DWfyo2QW2wu0mthNHuxB-47" value="Notifications" style="html=1;shadow=0;dashed=0;shape=mxgraph.bootstrap.rrect;rSize=5;strokeColor=none;strokeWidth=1;fillColor=#0085FC;fontColor=#FFFFFF;whiteSpace=wrap;align=left;verticalAlign=middle;spacingLeft=10;fontStyle=0;fontSize=14;" parent="DWfyo2QW2wu0mthNHuxB-52" vertex="1">
          <mxGeometry x="40" width="130" height="40" as="geometry" />
        </mxCell>
        <mxCell id="DWfyo2QW2wu0mthNHuxB-48" value="4" style="html=1;shadow=0;dashed=0;shape=mxgraph.bootstrap.rrect;rSize=5;strokeColor=none;strokeWidth=1;fillColor=#ffffff;fontColor=#000000;whiteSpace=wrap;align=center;verticalAlign=middle;fontSize=12;" parent="DWfyo2QW2wu0mthNHuxB-47" vertex="1">
          <mxGeometry x="1" y="0.5" width="20" height="20" relative="1" as="geometry">
            <mxPoint x="-30" y="-10" as="offset" />
          </mxGeometry>
        </mxCell>
        <mxCell id="DWfyo2QW2wu0mthNHuxB-50" value="" style="sketch=0;html=1;aspect=fixed;strokeColor=none;shadow=0;fillColor=#3B8DF1;verticalAlign=top;labelPosition=center;verticalLabelPosition=bottom;shape=mxgraph.gcp2.maps_api" parent="DWfyo2QW2wu0mthNHuxB-52" vertex="1">
          <mxGeometry width="23.49" height="38.5" as="geometry" />
        </mxCell>
        <mxCell id="DWfyo2QW2wu0mthNHuxB-70" value="" style="endArrow=classic;html=1;rounded=0;exitX=-0.013;exitY=0.542;exitDx=0;exitDy=0;exitPerimeter=0;entryX=0.823;entryY=0.556;entryDx=0;entryDy=0;entryPerimeter=0;" parent="DWfyo2QW2wu0mthNHuxB-52" source="DWfyo2QW2wu0mthNHuxB-47" target="DWfyo2QW2wu0mthNHuxB-50" edge="1">
          <mxGeometry width="50" height="50" relative="1" as="geometry">
            <mxPoint x="46" y="90" as="sourcePoint" />
            <mxPoint x="96" y="40" as="targetPoint" />
          </mxGeometry>
        </mxCell>
        <mxCell id="DWfyo2QW2wu0mthNHuxB-71" value="" style="html=1;verticalLabelPosition=bottom;align=center;labelBackgroundColor=#ffffff;verticalAlign=top;strokeWidth=2;strokeColor=#0080F0;shadow=0;dashed=0;shape=mxgraph.ios7.icons.messages;" parent="DWfyo2QW2wu0mthNHuxB-52" vertex="1">
          <mxGeometry x="38" y="-42" width="30" height="25.5" as="geometry" />
        </mxCell>
        <mxCell id="DWfyo2QW2wu0mthNHuxB-73" value="" style="endArrow=classic;html=1;rounded=0;exitX=0.099;exitY=0.002;exitDx=0;exitDy=0;exitPerimeter=0;" parent="DWfyo2QW2wu0mthNHuxB-52" source="DWfyo2QW2wu0mthNHuxB-47" target="DWfyo2QW2wu0mthNHuxB-71" edge="1">
          <mxGeometry width="50" height="50" relative="1" as="geometry">
            <mxPoint x="48" y="32" as="sourcePoint" />
            <mxPoint x="29" y="31" as="targetPoint" />
          </mxGeometry>
        </mxCell>
        <mxCell id="DWfyo2QW2wu0mthNHuxB-74" value="" style="shape=mxgraph.signs.tech.telephone_4;html=1;pointerEvents=1;fillColor=#dae8fc;strokeColor=#6c8ebf;verticalLabelPosition=bottom;verticalAlign=top;align=center;gradientColor=#7ea6e0;" parent="DWfyo2QW2wu0mthNHuxB-52" vertex="1">
          <mxGeometry x="107.94999999999999" y="-44.75" width="18.05" height="28.25" as="geometry" />
        </mxCell>
        <mxCell id="DWfyo2QW2wu0mthNHuxB-75" value="" style="endArrow=classic;html=1;rounded=0;exitX=0.571;exitY=0.035;exitDx=0;exitDy=0;exitPerimeter=0;entryX=0.38;entryY=1;entryDx=0;entryDy=0;entryPerimeter=0;" parent="DWfyo2QW2wu0mthNHuxB-52" source="DWfyo2QW2wu0mthNHuxB-47" target="DWfyo2QW2wu0mthNHuxB-74" edge="1">
          <mxGeometry width="50" height="50" relative="1" as="geometry">
            <mxPoint x="63" y="10" as="sourcePoint" />
            <mxPoint x="63" y="-6" as="targetPoint" />
          </mxGeometry>
        </mxCell>
        <mxCell id="DWfyo2QW2wu0mthNHuxB-53" value="" style="group" parent="1" vertex="1" connectable="0">
          <mxGeometry x="511" y="330" width="160" height="110" as="geometry" />
        </mxCell>
        <mxCell id="DWfyo2QW2wu0mthNHuxB-34" value="" style="rounded=1;whiteSpace=wrap;html=1;" parent="DWfyo2QW2wu0mthNHuxB-53" vertex="1">
          <mxGeometry width="160" height="110" as="geometry" />
        </mxCell>
        <mxCell id="DWfyo2QW2wu0mthNHuxB-32" value="" style="shape=cylinder3;whiteSpace=wrap;html=1;boundedLbl=1;backgroundOutline=1;size=15;" parent="DWfyo2QW2wu0mthNHuxB-53" vertex="1">
          <mxGeometry x="90" y="30" width="50" height="70" as="geometry" />
        </mxCell>
        <mxCell id="DWfyo2QW2wu0mthNHuxB-33" value="" style="image;aspect=fixed;perimeter=ellipsePerimeter;html=1;align=center;shadow=0;dashed=0;spacingTop=3;image=img/lib/active_directory/database_server.svg;" parent="DWfyo2QW2wu0mthNHuxB-53" vertex="1">
          <mxGeometry x="20" y="30" width="57.4" height="70" as="geometry" />
        </mxCell>
        <mxCell id="DWfyo2QW2wu0mthNHuxB-43" value="Database &amp;amp; Server" style="text;html=1;align=center;verticalAlign=middle;whiteSpace=wrap;rounded=0;" parent="DWfyo2QW2wu0mthNHuxB-53" vertex="1">
          <mxGeometry x="20" width="120" height="30" as="geometry" />
        </mxCell>
        <mxCell id="DWfyo2QW2wu0mthNHuxB-54" value="" style="verticalLabelPosition=bottom;sketch=0;html=1;fillColor=#282828;strokeColor=none;verticalAlign=top;pointerEvents=1;align=center;shape=mxgraph.cisco_safe.people_places_things_icons.icon1;" parent="1" vertex="1">
          <mxGeometry x="661" y="530" width="93" height="100" as="geometry" />
        </mxCell>
        <mxCell id="DWfyo2QW2wu0mthNHuxB-55" value="" style="pointerEvents=1;verticalLabelPosition=bottom;shadow=0;dashed=0;align=center;html=1;verticalAlign=top;shape=mxgraph.electrical.electro-mechanical.loudspeaker;fillColor=#dae8fc;gradientColor=#7ea6e0;strokeColor=#6c8ebf;" parent="1" vertex="1">
          <mxGeometry x="536" y="555" width="25" height="50" as="geometry" />
        </mxCell>
        <mxCell id="DWfyo2QW2wu0mthNHuxB-57" value="" style="endArrow=classic;startArrow=classic;html=1;rounded=0;entryX=0.594;entryY=0.964;entryDx=0;entryDy=0;entryPerimeter=0;dashed=1;" parent="1" target="DWfyo2QW2wu0mthNHuxB-31" edge="1">
          <mxGeometry width="50" height="50" relative="1" as="geometry">
            <mxPoint x="392" y="560" as="sourcePoint" />
            <mxPoint x="461" y="350" as="targetPoint" />
          </mxGeometry>
        </mxCell>
        <mxCell id="DWfyo2QW2wu0mthNHuxB-64" value="" style="endArrow=classic;html=1;rounded=0;exitX=0.25;exitY=1;exitDx=0;exitDy=0;entryX=0.615;entryY=-0.027;entryDx=0;entryDy=0;entryPerimeter=0;" parent="1" source="DWfyo2QW2wu0mthNHuxB-34" target="DWfyo2QW2wu0mthNHuxB-55" edge="1">
          <mxGeometry width="50" height="50" relative="1" as="geometry">
            <mxPoint x="211" y="600" as="sourcePoint" />
            <mxPoint x="551" y="530" as="targetPoint" />
          </mxGeometry>
        </mxCell>
        <mxCell id="DWfyo2QW2wu0mthNHuxB-68" value="" style="endArrow=classic;html=1;rounded=0;entryX=-0.028;entryY=0.517;entryDx=0;entryDy=0;entryPerimeter=0;exitX=1.161;exitY=0.512;exitDx=0;exitDy=0;exitPerimeter=0;" parent="1" source="DWfyo2QW2wu0mthNHuxB-55" target="DWfyo2QW2wu0mthNHuxB-54" edge="1">
          <mxGeometry width="50" height="50" relative="1" as="geometry">
            <mxPoint x="571" y="582" as="sourcePoint" />
            <mxPoint x="561" y="564" as="targetPoint" />
          </mxGeometry>
        </mxCell>
        <mxCell id="DWfyo2QW2wu0mthNHuxB-76" value="" style="endArrow=classic;startArrow=classic;html=1;rounded=0;entryX=0;entryY=0.5;entryDx=0;entryDy=0;dashed=1;" parent="1" target="DWfyo2QW2wu0mthNHuxB-34" edge="1">
          <mxGeometry width="50" height="50" relative="1" as="geometry">
            <mxPoint x="431" y="385" as="sourcePoint" />
            <mxPoint x="402" y="432" as="targetPoint" />
          </mxGeometry>
        </mxCell>
        <mxCell id="QuaXPlyMEglj5kUEZojd-64" value="API" style="edgeLabel;html=1;align=center;verticalAlign=middle;resizable=0;points=[];" parent="DWfyo2QW2wu0mthNHuxB-76" vertex="1" connectable="0">
          <mxGeometry x="-0.1389" y="3" relative="1" as="geometry">
            <mxPoint y="2" as="offset" />
          </mxGeometry>
        </mxCell>
        <mxCell id="DWfyo2QW2wu0mthNHuxB-77" value="" style="endArrow=classic;startArrow=classic;html=1;rounded=0;entryX=0.5;entryY=0;entryDx=0;entryDy=0;dashed=1;exitX=1;exitY=0.5;exitDx=0;exitDy=0;" parent="1" source="DWfyo2QW2wu0mthNHuxB-51" target="DWfyo2QW2wu0mthNHuxB-43" edge="1">
          <mxGeometry width="50" height="50" relative="1" as="geometry">
            <mxPoint x="441" y="395" as="sourcePoint" />
            <mxPoint x="521" y="395" as="targetPoint" />
            <Array as="points">
              <mxPoint x="591" y="220" />
            </Array>
          </mxGeometry>
        </mxCell>
        <mxCell id="QuaXPlyMEglj5kUEZojd-65" value="API" style="edgeLabel;html=1;align=center;verticalAlign=middle;resizable=0;points=[];" parent="DWfyo2QW2wu0mthNHuxB-77" vertex="1" connectable="0">
          <mxGeometry x="0.4627" y="-3" relative="1" as="geometry">
            <mxPoint as="offset" />
          </mxGeometry>
        </mxCell>
        <mxCell id="DWfyo2QW2wu0mthNHuxB-78" value="API" style="endArrow=classic;startArrow=classic;html=1;rounded=0;dashed=1;exitX=0.5;exitY=0;exitDx=0;exitDy=0;exitPerimeter=0;" parent="1" source="DWfyo2QW2wu0mthNHuxB-49" edge="1">
          <mxGeometry width="50" height="50" relative="1" as="geometry">
            <mxPoint x="475" y="230" as="sourcePoint" />
            <mxPoint x="281" y="220" as="targetPoint" />
            <Array as="points">
              <mxPoint x="161" y="220" />
            </Array>
          </mxGeometry>
        </mxCell>
        <mxCell id="DWfyo2QW2wu0mthNHuxB-79" value="" style="endArrow=classic;startArrow=classic;html=1;rounded=0;exitX=0.5;exitY=1;exitDx=0;exitDy=0;exitPerimeter=0;entryX=0.515;entryY=0.01;entryDx=0;entryDy=0;entryPerimeter=0;" parent="1" source="DWfyo2QW2wu0mthNHuxB-49" target="DWfyo2QW2wu0mthNHuxB-24" edge="1">
          <mxGeometry width="50" height="50" relative="1" as="geometry">
            <mxPoint x="373" y="640" as="sourcePoint" />
            <mxPoint x="301" y="610" as="targetPoint" />
            <Array as="points">
              <mxPoint x="161" y="440" />
              <mxPoint x="356" y="440" />
            </Array>
          </mxGeometry>
        </mxCell>
        <mxCell id="DWfyo2QW2wu0mthNHuxB-80" value="" style="endArrow=classic;startArrow=classic;html=1;rounded=0;entryX=1;entryY=1;entryDx=0;entryDy=0;entryPerimeter=0;dashed=1;" parent="1" source="DWfyo2QW2wu0mthNHuxB-31" target="DWfyo2QW2wu0mthNHuxB-49" edge="1">
          <mxGeometry width="50" height="50" relative="1" as="geometry">
            <mxPoint x="402" y="570" as="sourcePoint" />
            <mxPoint x="402" y="432" as="targetPoint" />
          </mxGeometry>
        </mxCell>
        <mxCell id="DWfyo2QW2wu0mthNHuxB-81" value="" style="endArrow=classic;startArrow=classic;html=1;rounded=0;entryX=0.5;entryY=1;entryDx=0;entryDy=0;dashed=1;exitX=0.483;exitY=0.121;exitDx=0;exitDy=0;exitPerimeter=0;" parent="1" source="DWfyo2QW2wu0mthNHuxB-31" target="DWfyo2QW2wu0mthNHuxB-51" edge="1">
          <mxGeometry width="50" height="50" relative="1" as="geometry">
            <mxPoint x="402" y="570" as="sourcePoint" />
            <mxPoint x="402" y="432" as="targetPoint" />
          </mxGeometry>
        </mxCell>
        <mxCell id="DWfyo2QW2wu0mthNHuxB-82" value="User" style="text;html=1;align=center;verticalAlign=middle;whiteSpace=wrap;rounded=0;" parent="1" vertex="1">
          <mxGeometry x="327" y="624" width="60" height="30" as="geometry" />
        </mxCell>
        <mxCell id="DWfyo2QW2wu0mthNHuxB-83" value="Family" style="text;html=1;align=center;verticalAlign=middle;whiteSpace=wrap;rounded=0;" parent="1" vertex="1">
          <mxGeometry x="101" y="387" width="60" height="30" as="geometry" />
        </mxCell>
        <mxCell id="DWfyo2QW2wu0mthNHuxB-87" value="" style="endArrow=classic;html=1;rounded=0;" parent="1" edge="1">
          <mxGeometry width="50" height="50" relative="1" as="geometry">
            <mxPoint x="581" y="613" as="sourcePoint" />
            <mxPoint x="401" y="613" as="targetPoint" />
          </mxGeometry>
        </mxCell>
        <mxCell id="DWfyo2QW2wu0mthNHuxB-89" value="" style="endArrow=classic;html=1;rounded=0;entryX=-0.028;entryY=0.826;entryDx=0;entryDy=0;entryPerimeter=0;dashed=1;" parent="1" target="DWfyo2QW2wu0mthNHuxB-54" edge="1">
          <mxGeometry width="50" height="50" relative="1" as="geometry">
            <mxPoint x="581" y="613" as="sourcePoint" />
            <mxPoint x="651" y="593" as="targetPoint" />
          </mxGeometry>
        </mxCell>
        <mxCell id="DWfyo2QW2wu0mthNHuxB-92" value="" style="endArrow=classic;html=1;rounded=0;entryX=1;entryY=0.25;entryDx=0;entryDy=0;" parent="1" target="DWfyo2QW2wu0mthNHuxB-82" edge="1">
          <mxGeometry width="50" height="50" relative="1" as="geometry">
            <mxPoint x="561" y="670" as="sourcePoint" />
            <mxPoint x="668" y="592" as="targetPoint" />
            <Array as="points">
              <mxPoint x="541" y="670" />
              <mxPoint x="541" y="650" />
              <mxPoint x="387" y="650" />
            </Array>
          </mxGeometry>
        </mxCell>
        <mxCell id="DWfyo2QW2wu0mthNHuxB-94" value="User Helper" style="text;html=1;align=center;verticalAlign=middle;whiteSpace=wrap;rounded=0;" parent="1" vertex="1">
          <mxGeometry x="671" y="677" width="60" height="30" as="geometry" />
        </mxCell>
        <mxCell id="DWfyo2QW2wu0mthNHuxB-96" value="Good People" style="text;html=1;align=center;verticalAlign=middle;whiteSpace=wrap;rounded=0;" parent="1" vertex="1">
          <mxGeometry x="754" y="589" width="60" height="30" as="geometry" />
        </mxCell>
        <mxCell id="DWfyo2QW2wu0mthNHuxB-97" value="Bad People" style="text;html=1;align=center;verticalAlign=middle;whiteSpace=wrap;rounded=0;" parent="1" vertex="1">
          <mxGeometry x="554" y="698" width="60" height="30" as="geometry" />
        </mxCell>
        <mxCell id="DWfyo2QW2wu0mthNHuxB-98" value="User Communications" style="text;html=1;align=center;verticalAlign=middle;whiteSpace=wrap;rounded=0;" parent="1" vertex="1">
          <mxGeometry x="578" y="460" width="60" height="30" as="geometry" />
        </mxCell>
        <mxCell id="QuaXPlyMEglj5kUEZojd-2" value="" style="group" parent="1" vertex="1" connectable="0">
          <mxGeometry x="558" y="630" width="43" height="62.5" as="geometry" />
        </mxCell>
        <mxCell id="DWfyo2QW2wu0mthNHuxB-90" value="" style="outlineConnect=0;dashed=0;verticalLabelPosition=bottom;verticalAlign=top;align=center;html=1;shape=mxgraph.aws3.user;fillColor=#FF99CC;strokeColor=#36393d;" parent="QuaXPlyMEglj5kUEZojd-2" vertex="1">
          <mxGeometry x="4.89873417721519" y="0.9920634920634921" width="38.10126582278481" height="61.507936507936506" as="geometry" />
        </mxCell>
        <mxCell id="DWfyo2QW2wu0mthNHuxB-91" value="" style="shape=image;html=1;verticalAlign=top;verticalLabelPosition=bottom;labelBackgroundColor=#ffffff;imageAspect=0;aspect=fixed;image=https://cdn4.iconfinder.com/data/icons/ios-web-user-interface-multi-circle-flat-vol-6/512/Dislike_down_thumb_thumbs_vote-128.png" parent="QuaXPlyMEglj5kUEZojd-2" vertex="1">
          <mxGeometry width="20.68354430379747" height="20.68354430379747" as="geometry" />
        </mxCell>
        <mxCell id="QuaXPlyMEglj5kUEZojd-3" value="" style="endArrow=classic;html=1;rounded=0;entryX=1;entryY=0.68;entryDx=0;entryDy=0;entryPerimeter=0;exitX=0.523;exitY=0.993;exitDx=0;exitDy=0;exitPerimeter=0;" parent="1" source="DWfyo2QW2wu0mthNHuxB-54" target="DWfyo2QW2wu0mthNHuxB-90" edge="1">
          <mxGeometry width="50" height="50" relative="1" as="geometry">
            <mxPoint x="710" y="629" as="sourcePoint" />
            <mxPoint x="601" y="673" as="targetPoint" />
            <Array as="points">
              <mxPoint x="710" y="673" />
            </Array>
          </mxGeometry>
        </mxCell>
        <mxCell id="QuaXPlyMEglj5kUEZojd-48" value="" style="group" parent="1" vertex="1" connectable="0">
          <mxGeometry x="93" y="449" width="319" height="175" as="geometry" />
        </mxCell>
        <mxCell id="QuaXPlyMEglj5kUEZojd-47" value="" style="group" parent="QuaXPlyMEglj5kUEZojd-48" vertex="1" connectable="0">
          <mxGeometry x="19" y="-10" width="300" height="180.00000000000003" as="geometry" />
        </mxCell>
        <mxCell id="QuaXPlyMEglj5kUEZojd-6" value="" style="shape=callout;whiteSpace=wrap;html=1;perimeter=calloutPerimeter;base=24;position2=1;flipV=0;flipH=0;direction=east;" parent="QuaXPlyMEglj5kUEZojd-47" vertex="1">
          <mxGeometry y="20" width="210" height="160" as="geometry" />
        </mxCell>
        <mxCell id="QuaXPlyMEglj5kUEZojd-7" value="" style="group;fontSize=4;" parent="QuaXPlyMEglj5kUEZojd-47" vertex="1" connectable="0">
          <mxGeometry x="8" y="31" width="292" height="109.00000000000001" as="geometry" />
        </mxCell>
        <mxCell id="QuaXPlyMEglj5kUEZojd-45" value="" style="group" parent="QuaXPlyMEglj5kUEZojd-7" vertex="1" connectable="0">
          <mxGeometry y="-9.110000000000014" width="198" height="118.11000000000003" as="geometry" />
        </mxCell>
        <mxCell id="QuaXPlyMEglj5kUEZojd-8" value="" style="group;fontSize=10;" parent="QuaXPlyMEglj5kUEZojd-45" vertex="1" connectable="0">
          <mxGeometry x="36.79739965042471" y="16.37666666666668" width="146.4168532090399" height="101.73333333333335" as="geometry" />
        </mxCell>
        <mxCell id="QuaXPlyMEglj5kUEZojd-27" value="Text" style="text;html=1;align=center;verticalAlign=middle;whiteSpace=wrap;rounded=0;" parent="QuaXPlyMEglj5kUEZojd-8" vertex="1">
          <mxGeometry x="9.032600349575262" y="-16.376666666666665" width="60" height="30" as="geometry" />
        </mxCell>
        <mxCell id="QuaXPlyMEglj5kUEZojd-9" value="" style="group" parent="QuaXPlyMEglj5kUEZojd-8" vertex="1" connectable="0">
          <mxGeometry x="11.811733943638218" y="58.13333333333334" width="105.98569177161126" height="43.6" as="geometry" />
        </mxCell>
        <mxCell id="QuaXPlyMEglj5kUEZojd-10" value="" style="whiteSpace=wrap;html=1;" parent="QuaXPlyMEglj5kUEZojd-9" vertex="1">
          <mxGeometry width="104.25929900953666" height="43.6" as="geometry" />
        </mxCell>
        <mxCell id="QuaXPlyMEglj5kUEZojd-12" value="Magnetic&lt;div&gt;Sensor&lt;/div&gt;" style="ellipse;whiteSpace=wrap;html=1;aspect=fixed;fontSize=6;" parent="QuaXPlyMEglj5kUEZojd-9" vertex="1">
          <mxGeometry x="66.41" y="3.84" width="35.59" height="35.59" as="geometry" />
        </mxCell>
        <mxCell id="QuaXPlyMEglj5kUEZojd-39" value="Voice&lt;div&gt;Recorder&lt;/div&gt;" style="ellipse;whiteSpace=wrap;html=1;aspect=fixed;fontSize=6;" parent="QuaXPlyMEglj5kUEZojd-9" vertex="1">
          <mxGeometry x="2.4099999999999966" y="2.84" width="35.59" height="35.59" as="geometry" />
        </mxCell>
        <mxCell id="QuaXPlyMEglj5kUEZojd-40" value="GPS" style="ellipse;whiteSpace=wrap;html=1;aspect=fixed;fontSize=6;" parent="QuaXPlyMEglj5kUEZojd-9" vertex="1">
          <mxGeometry x="41" y="10.809999999999999" width="21.99" height="21.99" as="geometry" />
        </mxCell>
        <mxCell id="QuaXPlyMEglj5kUEZojd-28" value="Mikrokontroller" style="text;html=1;align=center;verticalAlign=middle;whiteSpace=wrap;rounded=0;" parent="QuaXPlyMEglj5kUEZojd-8" vertex="1">
          <mxGeometry x="35.20260034957528" y="-13.266666666666652" width="60" height="30" as="geometry" />
        </mxCell>
        <mxCell id="QuaXPlyMEglj5kUEZojd-15" value="POWER&lt;div style=&quot;font-size: 8px;&quot;&gt;SUPPLY&lt;/div&gt;" style="whiteSpace=wrap;html=1;fontSize=8;" parent="QuaXPlyMEglj5kUEZojd-45" vertex="1">
          <mxGeometry y="9.110000000000014" width="36.79739965042471" height="109.00000000000001" as="geometry" />
        </mxCell>
        <mxCell id="QuaXPlyMEglj5kUEZojd-17" value="" style="endArrow=classic;html=1;rounded=0;entryX=0;entryY=0.5;entryDx=0;entryDy=0;exitX=1;exitY=0.5;exitDx=0;exitDy=0;" parent="QuaXPlyMEglj5kUEZojd-45" edge="1">
          <mxGeometry width="50" height="50" relative="1" as="geometry">
            <mxPoint x="153.32249854343615" y="18.917266666666592" as="sourcePoint" />
            <mxPoint x="170.94999999999823" y="18.555000000000064" as="targetPoint" />
          </mxGeometry>
        </mxCell>
        <mxCell id="QuaXPlyMEglj5kUEZojd-18" value="" style="whiteSpace=wrap;html=1;" parent="QuaXPlyMEglj5kUEZojd-45" vertex="1">
          <mxGeometry x="48.60936493821104" y="9.117266666666673" width="104.71313360522525" height="43.6" as="geometry" />
        </mxCell>
        <mxCell id="QuaXPlyMEglj5kUEZojd-19" value="" style="endArrow=classic;html=1;rounded=0;entryX=0;entryY=0.5;entryDx=0;entryDy=0;exitX=0.993;exitY=0.2;exitDx=0;exitDy=0;exitPerimeter=0;" parent="QuaXPlyMEglj5kUEZojd-45" source="QuaXPlyMEglj5kUEZojd-15" target="QuaXPlyMEglj5kUEZojd-18" edge="1">
          <mxGeometry width="50" height="50" relative="1" as="geometry">
            <mxPoint x="29.89175431602834" y="38.176666666666684" as="sourcePoint" />
            <mxPoint x="53.810064088804396" y="38.176666666666684" as="targetPoint" />
          </mxGeometry>
        </mxCell>
        <mxCell id="QuaXPlyMEglj5kUEZojd-20" value="" style="endArrow=classic;html=1;rounded=0;entryX=0;entryY=0.5;entryDx=0;entryDy=0;exitX=0.99;exitY=0.801;exitDx=0;exitDy=0;exitPerimeter=0;" parent="QuaXPlyMEglj5kUEZojd-45" source="QuaXPlyMEglj5kUEZojd-15" target="QuaXPlyMEglj5kUEZojd-10" edge="1">
          <mxGeometry width="50" height="50" relative="1" as="geometry">
            <mxPoint x="42.77084419367699" y="38.176666666666684" as="sourcePoint" />
            <mxPoint x="55.0366440771519" y="38.176666666666684" as="targetPoint" />
          </mxGeometry>
        </mxCell>
        <mxCell id="QuaXPlyMEglj5kUEZojd-21" value="" style="endArrow=classic;html=1;rounded=0;entryX=0.5;entryY=1;entryDx=0;entryDy=0;exitX=0.5;exitY=0;exitDx=0;exitDy=0;" parent="QuaXPlyMEglj5kUEZojd-45" source="QuaXPlyMEglj5kUEZojd-10" target="QuaXPlyMEglj5kUEZojd-18" edge="1">
          <mxGeometry width="50" height="50" relative="1" as="geometry">
            <mxPoint x="42.77084419367699" y="103.5766666666667" as="sourcePoint" />
            <mxPoint x="55.0366440771519" y="103.5766666666667" as="targetPoint" />
          </mxGeometry>
        </mxCell>
        <mxCell id="QuaXPlyMEglj5kUEZojd-22" value="" style="endArrow=classic;html=1;rounded=0;entryX=0;entryY=0.5;entryDx=0;entryDy=0;exitX=1;exitY=0.5;exitDx=0;exitDy=0;" parent="QuaXPlyMEglj5kUEZojd-45" edge="1">
          <mxGeometry width="50" height="50" relative="1" as="geometry">
            <mxPoint x="153.32249854343615" y="34.91726666666659" as="sourcePoint" />
            <mxPoint x="170.94999999999823" y="34.55499999999995" as="targetPoint" />
          </mxGeometry>
        </mxCell>
        <mxCell id="QuaXPlyMEglj5kUEZojd-25" value="" style="whiteSpace=wrap;html=1;" parent="QuaXPlyMEglj5kUEZojd-45" vertex="1">
          <mxGeometry x="54.65" y="23.380000000000013" width="42.35" height="22.73" as="geometry" />
        </mxCell>
        <mxCell id="QuaXPlyMEglj5kUEZojd-26" value="" style="whiteSpace=wrap;html=1;" parent="QuaXPlyMEglj5kUEZojd-45" vertex="1">
          <mxGeometry x="104" y="23.380000000000013" width="42.35" height="22.73" as="geometry" />
        </mxCell>
        <mxCell id="QuaXPlyMEglj5kUEZojd-30" value="Mikrokontroller" style="text;html=1;align=center;verticalAlign=middle;whiteSpace=wrap;rounded=0;fontSize=7;" parent="QuaXPlyMEglj5kUEZojd-45" vertex="1">
          <mxGeometry x="70.97" width="60" height="30" as="geometry" />
        </mxCell>
        <mxCell id="QuaXPlyMEglj5kUEZojd-31" value="ESP32" style="text;html=1;align=center;verticalAlign=middle;whiteSpace=wrap;rounded=0;fontSize=7;" parent="QuaXPlyMEglj5kUEZojd-45" vertex="1">
          <mxGeometry x="46.65" y="19.92" width="60" height="30" as="geometry" />
        </mxCell>
        <mxCell id="QuaXPlyMEglj5kUEZojd-32" value="Arduino&lt;div&gt;Nano&lt;/div&gt;" style="text;html=1;align=center;verticalAlign=middle;whiteSpace=wrap;rounded=0;fontSize=7;" parent="QuaXPlyMEglj5kUEZojd-45" vertex="1">
          <mxGeometry x="97" y="19.380000000000003" width="60" height="30" as="geometry" />
        </mxCell>
        <mxCell id="QuaXPlyMEglj5kUEZojd-41" value="Buzzer" style="rounded=0;whiteSpace=wrap;html=1;fontSize=7;" parent="QuaXPlyMEglj5kUEZojd-45" vertex="1">
          <mxGeometry x="170" y="12.110000000000014" width="28" height="13" as="geometry" />
        </mxCell>
        <mxCell id="QuaXPlyMEglj5kUEZojd-42" value="Button" style="rounded=0;whiteSpace=wrap;html=1;fontSize=7;" parent="QuaXPlyMEglj5kUEZojd-45" vertex="1">
          <mxGeometry x="170" y="27.110000000000014" width="28" height="13" as="geometry" />
        </mxCell>
        <mxCell id="QuaXPlyMEglj5kUEZojd-43" value="" style="endArrow=classic;html=1;rounded=0;entryX=0;entryY=0.5;entryDx=0;entryDy=0;exitX=1;exitY=0.5;exitDx=0;exitDy=0;" parent="QuaXPlyMEglj5kUEZojd-45" edge="1">
          <mxGeometry width="50" height="50" relative="1" as="geometry">
            <mxPoint x="153.32249854343615" y="49.91726666666659" as="sourcePoint" />
            <mxPoint x="170.94999999999823" y="49.55499999999995" as="targetPoint" />
          </mxGeometry>
        </mxCell>
        <mxCell id="QuaXPlyMEglj5kUEZojd-44" value="Speaker" style="rounded=0;whiteSpace=wrap;html=1;fontSize=6;" parent="QuaXPlyMEglj5kUEZojd-45" vertex="1">
          <mxGeometry x="170" y="42.110000000000014" width="28" height="13" as="geometry" />
        </mxCell>
        <mxCell id="luY_B5zFm2SX42aAL1PO-6" value="&lt;font style=&quot;font-size: 8px;&quot;&gt;Node&lt;/font&gt;" style="ellipse;whiteSpace=wrap;html=1;aspect=fixed;" vertex="1" parent="QuaXPlyMEglj5kUEZojd-47">
          <mxGeometry x="206" y="163" width="20" height="20" as="geometry" />
        </mxCell>
        <mxCell id="QuaXPlyMEglj5kUEZojd-24" value="Node" style="text;html=1;align=center;verticalAlign=middle;whiteSpace=wrap;rounded=0;" parent="QuaXPlyMEglj5kUEZojd-48" vertex="1">
          <mxGeometry x="80" y="145" width="60" height="30" as="geometry" />
        </mxCell>
        <mxCell id="QuaXPlyMEglj5kUEZojd-70" value="Harrastment" style="text;html=1;align=center;verticalAlign=middle;whiteSpace=wrap;rounded=0;" parent="1" vertex="1">
          <mxGeometry x="451" y="654" width="60" height="30" as="geometry" />
        </mxCell>
        <mxCell id="QuaXPlyMEglj5kUEZojd-71" value="Interaction" style="text;html=1;align=center;verticalAlign=middle;whiteSpace=wrap;rounded=0;" parent="1" vertex="1">
          <mxGeometry x="436" y="589" width="60" height="30" as="geometry" />
        </mxCell>
        <mxCell id="luY_B5zFm2SX42aAL1PO-11" value="" style="group" vertex="1" connectable="0" parent="1">
          <mxGeometry x="380" y="840" width="311" height="120" as="geometry" />
        </mxCell>
        <mxCell id="QuaXPlyMEglj5kUEZojd-69" value="" style="rounded=0;whiteSpace=wrap;html=1;" parent="luY_B5zFm2SX42aAL1PO-11" vertex="1">
          <mxGeometry width="280.90322580645164" height="112.78195488721803" as="geometry" />
        </mxCell>
        <mxCell id="QuaXPlyMEglj5kUEZojd-49" value="" style="endArrow=none;dashed=1;html=1;dashPattern=1 3;strokeWidth=2;rounded=0;" parent="luY_B5zFm2SX42aAL1PO-11" edge="1">
          <mxGeometry width="50" height="50" relative="1" as="geometry">
            <mxPoint x="167.53870967741932" y="31.57894736842104" as="sourcePoint" />
            <mxPoint x="7.02258064516127" y="31.57894736842104" as="targetPoint" />
          </mxGeometry>
        </mxCell>
        <mxCell id="QuaXPlyMEglj5kUEZojd-50" value="" style="endArrow=none;html=1;rounded=0;" parent="luY_B5zFm2SX42aAL1PO-11" edge="1">
          <mxGeometry width="50" height="50" relative="1" as="geometry">
            <mxPoint x="10.0322580645161" y="58.64661654135338" as="sourcePoint" />
            <mxPoint x="170.54838709677415" y="58.64661654135338" as="targetPoint" />
          </mxGeometry>
        </mxCell>
        <mxCell id="QuaXPlyMEglj5kUEZojd-52" value="Komunikasi&lt;div&gt;Logika&lt;/div&gt;" style="text;html=1;align=center;verticalAlign=middle;whiteSpace=wrap;rounded=0;" parent="luY_B5zFm2SX42aAL1PO-11" vertex="1">
          <mxGeometry x="221.71000000000004" y="27.069999999999993" width="9.29" as="geometry" />
        </mxCell>
        <mxCell id="QuaXPlyMEglj5kUEZojd-53" value="Komunikasi&lt;div&gt;Langsung&lt;/div&gt;" style="text;html=1;align=center;verticalAlign=middle;whiteSpace=wrap;rounded=0;" parent="luY_B5zFm2SX42aAL1PO-11" vertex="1">
          <mxGeometry x="196.63225806451612" y="49.62406015037595" width="60.193548387096776" height="27.06766917293233" as="geometry" />
        </mxCell>
        <mxCell id="QuaXPlyMEglj5kUEZojd-68" value="API :&amp;nbsp;&lt;span style=&quot;background-color: rgb(255, 255, 255); color: rgb(17, 17, 17); font-family: Roboto, sans-serif;&quot;&gt;&lt;font style=&quot;font-size: 13px;&quot;&gt;Application Programming Interface&lt;/font&gt;&lt;/span&gt;&lt;ul style=&quot;border: 0px; border-collapse: collapse; border-spacing: 0px; list-style: none; margin: 0px; padding: 0px; color: rgb(68, 68, 68); font-family: Roboto, Helvetica, sans-serif; font-size: 14px; background-color: rgb(255, 255, 255);&quot;&gt;&lt;/ul&gt;&lt;div&gt;&lt;span style=&quot;background-color: rgb(255, 255, 255); color: rgb(17, 17, 17); font-family: Roboto, sans-serif; font-size: 40px;&quot;&gt;&lt;br&gt;&lt;/span&gt;&lt;/div&gt;" style="text;whiteSpace=wrap;html=1;" parent="luY_B5zFm2SX42aAL1PO-11" vertex="1">
          <mxGeometry x="10.0322580645161" y="83.90977443609023" width="300.96774193548384" height="36.09022556390977" as="geometry" />
        </mxCell>
      </root>
    </mxGraphModel>
  </diagram>
</mxfile>
